<?xml version="1.0" encoding="UTF-8" standalone="no"?>
<!DOCTYPE svg PUBLIC "-//W3C//DTD SVG 1.1//EN"
 "http://www.w3.org/Graphics/SVG/1.1/DTD/svg11.dtd">
<!-- Generated by graphviz version 2.40.1 (20161225.0304)
 -->
<!-- Title: dependencies Pages: 1 -->
<svg width="2242pt" height="349pt"
 viewBox="0.00 0.00 2242.00 349.00" xmlns="http://www.w3.org/2000/svg" xmlns:xlink="http://www.w3.org/1999/xlink">
<g id="graph0" class="graph" transform="scale(1 1) rotate(0) translate(4 345)">
<title>dependencies</title>
<polygon fill="#ffffff" stroke="transparent" points="-4,4 -4,-345 2238,-345 2238,4 -4,4"/>
<text text-anchor="start" x="1096.0091" y="-42.4" font-family="sans-serif" font-weight="bold" font-size="14.00" fill="#000000">Legend</text>
<polygon fill="#ffffb3" stroke="transparent" points="883,-10 883,-30 903,-30 903,-10 883,-10"/>
<text text-anchor="start" x="906.629" y="-15.4" font-family="sans-serif" font-size="14.00" fill="#000000"> &#160;Declarations</text>
<polygon fill="#8dd3c7" stroke="transparent" points="996,-10 996,-30 1016,-30 1016,-10 996,-10"/>
<text text-anchor="start" x="1019.7251" y="-15.4" font-family="sans-serif" font-size="14.00" fill="#000000"> &#160;Module</text>
<polygon fill="#80b1d3" stroke="transparent" points="1082,-10 1082,-30 1102,-30 1102,-10 1082,-10"/>
<text text-anchor="start" x="1105.7812" y="-15.4" font-family="sans-serif" font-size="14.00" fill="#000000"> &#160;Bootstrap</text>
<polygon fill="#fdb462" stroke="transparent" points="1179,-10 1179,-30 1199,-30 1199,-10 1179,-10"/>
<text text-anchor="start" x="1202.6732" y="-15.4" font-family="sans-serif" font-size="14.00" fill="#000000"> &#160;Providers</text>
<polygon fill="#fb8072" stroke="transparent" points="1275,-10 1275,-30 1295,-30 1295,-10 1275,-10"/>
<text text-anchor="start" x="1298.7258" y="-15.4" font-family="sans-serif" font-size="14.00" fill="#000000"> &#160;Exports</text>
<g id="clust1" class="cluster">
<title>cluster_AppModule</title>
<polygon fill="none" stroke="#000000" stroke-dasharray="1,5" points="8,-70 8,-333 2226,-333 2226,-70 8,-70"/>
</g>
<g id="clust2" class="cluster">
<title>cluster_AppModule_declarations</title>
<polygon fill="none" stroke="#000000" points="806,-143 806,-195 2218,-195 2218,-143 806,-143"/>
</g>
<g id="clust3" class="cluster">
<title>cluster_AppModule_AppComponent_providers</title>
<polygon fill="none" stroke="#000000" points="2086,-78 2086,-130 2218,-130 2218,-78 2086,-78"/>
</g>
<g id="clust13" class="cluster">
<title>cluster_AppModule_imports</title>
<polygon fill="none" stroke="#000000" points="226,-143 226,-195 798,-195 798,-143 226,-143"/>
</g>
<g id="clust15" class="cluster">
<title>cluster_AppModule_bootstrap</title>
<polygon fill="none" stroke="#000000" points="1044,-273 1044,-325 1168,-325 1168,-273 1044,-273"/>
</g>
<g id="clust16" class="cluster">
<title>cluster_AppModule_providers</title>
<polygon fill="none" stroke="#000000" points="16,-143 16,-195 218,-195 218,-143 16,-143"/>
</g>
<!-- AppComponent -->
<g id="node1" class="node">
<title>AppComponent</title>
<polygon fill="#ffffb3" stroke="#000000" points="2209.9399,-187 2104.0601,-187 2104.0601,-151 2209.9399,-151 2209.9399,-187"/>
<text text-anchor="middle" x="2157" y="-164.8" font-family="Times,serif" font-size="14.00" fill="#000000">AppComponent</text>
</g>
<!-- AppModule -->
<g id="node11" class="node">
<title>AppModule</title>
<polygon fill="#8dd3c7" stroke="#000000" points="1147.6571,-252 1144.6571,-256 1123.6571,-256 1120.6571,-252 1064.3429,-252 1064.3429,-216 1147.6571,-216 1147.6571,-252"/>
<text text-anchor="middle" x="1106" y="-229.8" font-family="Times,serif" font-size="14.00" fill="#000000">AppModule</text>
</g>
<!-- AppComponent&#45;&gt;AppModule -->
<g id="edge1" class="edge">
<title>AppComponent&#45;&gt;AppModule</title>
<path fill="none" stroke="#000000" d="M2157,-187.3228C2157,-210.6602 2157,-248 2157,-248 2157,-248 1157.849,-248 1157.849,-248"/>
<polygon fill="#000000" stroke="#000000" points="1157.849,-244.5001 1147.849,-248 1157.849,-251.5001 1157.849,-244.5001"/>
</g>
<!-- LoginComponent -->
<g id="node2" class="node">
<title>LoginComponent</title>
<polygon fill="#ffffb3" stroke="#000000" points="2086.2758,-187 1971.7242,-187 1971.7242,-151 2086.2758,-151 2086.2758,-187"/>
<text text-anchor="middle" x="2029" y="-164.8" font-family="Times,serif" font-size="14.00" fill="#000000">LoginComponent</text>
</g>
<!-- LoginComponent&#45;&gt;AppModule -->
<g id="edge3" class="edge">
<title>LoginComponent&#45;&gt;AppModule</title>
<path fill="none" stroke="#000000" d="M2029,-187.2921C2029,-209.2057 2029,-243 2029,-243 2029,-243 1157.7547,-243 1157.7547,-243"/>
<polygon fill="#000000" stroke="#000000" points="1157.7547,-239.5001 1147.7547,-243 1157.7546,-246.5001 1157.7547,-239.5001"/>
</g>
<!-- RegisterComponent -->
<g id="node3" class="node">
<title>RegisterComponent</title>
<polygon fill="#ffffb3" stroke="#000000" points="1953.9846,-187 1826.0154,-187 1826.0154,-151 1953.9846,-151 1953.9846,-187"/>
<text text-anchor="middle" x="1890" y="-164.8" font-family="Times,serif" font-size="14.00" fill="#000000">RegisterComponent</text>
</g>
<!-- RegisterComponent&#45;&gt;AppModule -->
<g id="edge4" class="edge">
<title>RegisterComponent&#45;&gt;AppModule</title>
<path fill="none" stroke="#000000" d="M1890,-187.0267C1890,-207.7672 1890,-239 1890,-239 1890,-239 1157.8741,-239 1157.8741,-239"/>
<polygon fill="#000000" stroke="#000000" points="1157.8741,-235.5001 1147.8741,-239 1157.874,-242.5001 1157.8741,-235.5001"/>
</g>
<!-- HomeComponent -->
<g id="node4" class="node">
<title>HomeComponent</title>
<polygon fill="#ffffb3" stroke="#000000" points="1807.5451,-187 1692.4549,-187 1692.4549,-151 1807.5451,-151 1807.5451,-187"/>
<text text-anchor="middle" x="1750" y="-164.8" font-family="Times,serif" font-size="14.00" fill="#000000">HomeComponent</text>
</g>
<!-- HomeComponent&#45;&gt;AppModule -->
<g id="edge5" class="edge">
<title>HomeComponent&#45;&gt;AppModule</title>
<path fill="none" stroke="#000000" d="M1750,-187.1061C1750,-206.3391 1750,-234 1750,-234 1750,-234 1157.7584,-234 1157.7584,-234"/>
<polygon fill="#000000" stroke="#000000" points="1157.7585,-230.5001 1147.7584,-234 1157.7584,-237.5001 1157.7585,-230.5001"/>
</g>
<!-- UserEditComponent -->
<g id="node5" class="node">
<title>UserEditComponent</title>
<polygon fill="#ffffb3" stroke="#000000" points="1674.5926,-187 1543.4074,-187 1543.4074,-151 1674.5926,-151 1674.5926,-187"/>
<text text-anchor="middle" x="1609" y="-164.8" font-family="Times,serif" font-size="14.00" fill="#000000">UserEditComponent</text>
</g>
<!-- UserEditComponent&#45;&gt;AppModule -->
<g id="edge6" class="edge">
<title>UserEditComponent&#45;&gt;AppModule</title>
<path fill="none" stroke="#000000" d="M1609,-187.302C1609,-205.2699 1609,-230 1609,-230 1609,-230 1158.0203,-230 1158.0203,-230"/>
<polygon fill="#000000" stroke="#000000" points="1158.0204,-226.5001 1148.0203,-230 1158.0203,-233.5001 1158.0204,-226.5001"/>
</g>
<!-- UsersComponent -->
<g id="node6" class="node">
<title>UsersComponent</title>
<polygon fill="#ffffb3" stroke="#000000" points="1525.7036,-187 1412.2964,-187 1412.2964,-151 1525.7036,-151 1525.7036,-187"/>
<text text-anchor="middle" x="1469" y="-164.8" font-family="Times,serif" font-size="14.00" fill="#000000">UsersComponent</text>
</g>
<!-- UsersComponent&#45;&gt;AppModule -->
<g id="edge7" class="edge">
<title>UsersComponent&#45;&gt;AppModule</title>
<path fill="none" stroke="#000000" d="M1469,-187.027C1469,-203.3976 1469,-225 1469,-225 1469,-225 1157.9953,-225 1157.9953,-225"/>
<polygon fill="#000000" stroke="#000000" points="1157.9954,-221.5001 1147.9953,-225 1157.9953,-228.5001 1157.9954,-221.5001"/>
</g>
<!-- SidebarComponent -->
<g id="node7" class="node">
<title>SidebarComponent</title>
<polygon fill="#ffffb3" stroke="#000000" points="1394.0954,-187 1269.9046,-187 1269.9046,-151 1394.0954,-151 1394.0954,-187"/>
<text text-anchor="middle" x="1332" y="-164.8" font-family="Times,serif" font-size="14.00" fill="#000000">SidebarComponent</text>
</g>
<!-- SidebarComponent&#45;&gt;AppModule -->
<g id="edge8" class="edge">
<title>SidebarComponent&#45;&gt;AppModule</title>
<path fill="none" stroke="#000000" d="M1332,-187.1871C1332,-202.1824 1332,-221 1332,-221 1332,-221 1157.7153,-221 1157.7153,-221"/>
<polygon fill="#000000" stroke="#000000" points="1157.7153,-217.5001 1147.7153,-221 1157.7152,-224.5001 1157.7153,-217.5001"/>
</g>
<!-- TimelineComponent -->
<g id="node8" class="node">
<title>TimelineComponent</title>
<polygon fill="#ffffb3" stroke="#000000" points="1251.8767,-187 1120.1233,-187 1120.1233,-151 1251.8767,-151 1251.8767,-187"/>
<text text-anchor="middle" x="1186" y="-164.8" font-family="Times,serif" font-size="14.00" fill="#000000">TimelineComponent</text>
</g>
<!-- TimelineComponent&#45;&gt;AppModule -->
<g id="edge9" class="edge">
<title>TimelineComponent&#45;&gt;AppModule</title>
<path fill="none" stroke="#000000" d="M1133.945,-187.1061C1133.945,-187.1061 1133.945,-205.991 1133.945,-205.991"/>
<polygon fill="#000000" stroke="#000000" points="1130.445,-205.9909 1133.945,-215.991 1137.445,-205.991 1130.445,-205.9909"/>
</g>
<!-- PublicationsComponent -->
<g id="node9" class="node">
<title>PublicationsComponent</title>
<polygon fill="#ffffb3" stroke="#000000" points="1102.0519,-187 951.9481,-187 951.9481,-151 1102.0519,-151 1102.0519,-187"/>
<text text-anchor="middle" x="1027" y="-164.8" font-family="Times,serif" font-size="14.00" fill="#000000">PublicationsComponent</text>
</g>
<!-- PublicationsComponent&#45;&gt;AppModule -->
<g id="edge10" class="edge">
<title>PublicationsComponent&#45;&gt;AppModule</title>
<path fill="none" stroke="#000000" d="M1083.2237,-187.1061C1083.2237,-187.1061 1083.2237,-205.991 1083.2237,-205.991"/>
<polygon fill="#000000" stroke="#000000" points="1079.7238,-205.9909 1083.2237,-215.991 1086.7238,-205.991 1079.7238,-205.9909"/>
</g>
<!-- ProfileComponent -->
<g id="node10" class="node">
<title>ProfileComponent</title>
<polygon fill="#ffffb3" stroke="#000000" points="933.9328,-187 814.0672,-187 814.0672,-151 933.9328,-151 933.9328,-187"/>
<text text-anchor="middle" x="874" y="-164.8" font-family="Times,serif" font-size="14.00" fill="#000000">ProfileComponent</text>
</g>
<!-- ProfileComponent&#45;&gt;AppModule -->
<g id="edge11" class="edge">
<title>ProfileComponent&#45;&gt;AppModule</title>
<path fill="none" stroke="#000000" d="M874,-187.1871C874,-202.1824 874,-221 874,-221 874,-221 1054.2551,-221 1054.2551,-221"/>
<polygon fill="#000000" stroke="#000000" points="1054.2551,-224.5001 1064.2551,-221 1054.2551,-217.5001 1054.2551,-224.5001"/>
</g>
<!-- AppComponent  -->
<g id="node18" class="node">
<title>AppComponent </title>
<polygon fill="#80b1d3" stroke="#000000" points="1160.439,-317 1051.561,-317 1051.561,-281 1160.439,-281 1160.439,-317"/>
<text text-anchor="middle" x="1106" y="-294.8" font-family="Times,serif" font-size="14.00" fill="#000000">AppComponent </text>
</g>
<!-- AppModule&#45;&gt;AppComponent  -->
<g id="edge17" class="edge">
<title>AppModule&#45;&gt;AppComponent </title>
<path fill="none" stroke="#000000" stroke-dasharray="1,5" d="M1106,-252.1061C1106,-252.1061 1106,-270.991 1106,-270.991"/>
<polygon fill="#000000" stroke="#000000" points="1102.5001,-270.9909 1106,-280.991 1109.5001,-270.991 1102.5001,-270.9909"/>
</g>
<!-- UserService -->
<g id="node12" class="node">
<title>UserService</title>
<ellipse fill="#fdb462" stroke="#000000" cx="2152" cy="-104" rx="58.4415" ry="18"/>
<text text-anchor="middle" x="2152" y="-99.8" font-family="Times,serif" font-size="14.00" fill="#000000">UserService</text>
</g>
<!-- UserService&#45;&gt;AppComponent -->
<g id="edge2" class="edge">
<title>UserService&#45;&gt;AppComponent</title>
<path fill="none" stroke="#000000" d="M2157,-122.1061C2157,-122.1061 2157,-140.991 2157,-140.991"/>
<polygon fill="#000000" stroke="#000000" points="2153.5001,-140.9909 2157,-150.991 2160.5001,-140.991 2153.5001,-140.9909"/>
</g>
<!-- BrowserModule -->
<g id="node13" class="node">
<title>BrowserModule</title>
<polygon fill="#8dd3c7" stroke="#000000" points="790.4734,-187 787.4734,-191 766.4734,-191 763.4734,-187 683.5266,-187 683.5266,-151 790.4734,-151 790.4734,-187"/>
<text text-anchor="middle" x="737" y="-164.8" font-family="Times,serif" font-size="14.00" fill="#000000">BrowserModule</text>
</g>
<!-- BrowserModule&#45;&gt;AppModule -->
<g id="edge12" class="edge">
<title>BrowserModule&#45;&gt;AppModule</title>
<path fill="none" stroke="#000000" d="M737,-187.027C737,-203.3976 737,-225 737,-225 737,-225 1054.0303,-225 1054.0303,-225"/>
<polygon fill="#000000" stroke="#000000" points="1054.0303,-228.5001 1064.0303,-225 1054.0302,-221.5001 1054.0303,-228.5001"/>
</g>
<!-- routing -->
<g id="node14" class="node">
<title>routing</title>
<polygon fill="#8dd3c7" stroke="#000000" points="665.4435,-187 662.4435,-191 641.4435,-191 638.4435,-187 608.5565,-187 608.5565,-151 665.4435,-151 665.4435,-187"/>
<text text-anchor="middle" x="637" y="-164.8" font-family="Times,serif" font-size="14.00" fill="#000000">routing</text>
</g>
<!-- routing&#45;&gt;AppModule -->
<g id="edge13" class="edge">
<title>routing&#45;&gt;AppModule</title>
<path fill="none" stroke="#000000" d="M637,-187.302C637,-205.2699 637,-230 637,-230 637,-230 1053.9666,-230 1053.9666,-230"/>
<polygon fill="#000000" stroke="#000000" points="1053.9667,-233.5001 1063.9666,-230 1053.9666,-226.5001 1053.9667,-233.5001"/>
</g>
<!-- FormsModule -->
<g id="node15" class="node">
<title>FormsModule</title>
<polygon fill="#8dd3c7" stroke="#000000" points="590.8288,-187 587.8288,-191 566.8288,-191 563.8288,-187 495.1712,-187 495.1712,-151 590.8288,-151 590.8288,-187"/>
<text text-anchor="middle" x="543" y="-164.8" font-family="Times,serif" font-size="14.00" fill="#000000">FormsModule</text>
</g>
<!-- FormsModule&#45;&gt;AppModule -->
<g id="edge14" class="edge">
<title>FormsModule&#45;&gt;AppModule</title>
<path fill="none" stroke="#000000" d="M543,-187.1061C543,-206.3391 543,-234 543,-234 543,-234 1054.1435,-234 1054.1435,-234"/>
<polygon fill="#000000" stroke="#000000" points="1054.1435,-237.5001 1064.1435,-234 1054.1434,-230.5001 1054.1435,-237.5001"/>
</g>
<!-- HttpClientModule -->
<g id="node16" class="node">
<title>HttpClientModule</title>
<polygon fill="#8dd3c7" stroke="#000000" points="477.1611,-187 474.1611,-191 453.1611,-191 450.1611,-187 358.8389,-187 358.8389,-151 477.1611,-151 477.1611,-187"/>
<text text-anchor="middle" x="418" y="-164.8" font-family="Times,serif" font-size="14.00" fill="#000000">HttpClientModule</text>
</g>
<!-- HttpClientModule&#45;&gt;AppModule -->
<g id="edge15" class="edge">
<title>HttpClientModule&#45;&gt;AppModule</title>
<path fill="none" stroke="#000000" d="M418,-187.0267C418,-207.7672 418,-239 418,-239 418,-239 1054.2554,-239 1054.2554,-239"/>
<polygon fill="#000000" stroke="#000000" points="1054.2554,-242.5001 1064.2554,-239 1054.2553,-235.5001 1054.2554,-242.5001"/>
</g>
<!-- MomentModule -->
<g id="node17" class="node">
<title>MomentModule</title>
<polygon fill="#8dd3c7" stroke="#000000" points="340.4902,-187 337.4902,-191 316.4902,-191 313.4902,-187 233.5098,-187 233.5098,-151 340.4902,-151 340.4902,-187"/>
<text text-anchor="middle" x="287" y="-164.8" font-family="Times,serif" font-size="14.00" fill="#000000">MomentModule</text>
</g>
<!-- MomentModule&#45;&gt;AppModule -->
<g id="edge16" class="edge">
<title>MomentModule&#45;&gt;AppModule</title>
<path fill="none" stroke="#000000" d="M287,-187.2921C287,-209.2057 287,-243 287,-243 287,-243 1054.2597,-243 1054.2597,-243"/>
<polygon fill="#000000" stroke="#000000" points="1054.2597,-246.5001 1064.2597,-243 1054.2597,-239.5001 1054.2597,-246.5001"/>
</g>
<!-- appRoutingProviders -->
<g id="node19" class="node">
<title>appRoutingProviders</title>
<ellipse fill="#fdb462" stroke="#000000" cx="117" cy="-169" rx="93.2219" ry="18"/>
<text text-anchor="middle" x="117" y="-164.8" font-family="Times,serif" font-size="14.00" fill="#000000">appRoutingProviders</text>
</g>
<!-- appRoutingProviders&#45;&gt;AppModule -->
<g id="edge18" class="edge">
<title>appRoutingProviders&#45;&gt;AppModule</title>
<path fill="none" stroke="#000000" d="M117,-187.3228C117,-210.6602 117,-248 117,-248 117,-248 1054.1356,-248 1054.1356,-248"/>
<polygon fill="#000000" stroke="#000000" points="1054.1356,-251.5001 1064.1356,-248 1054.1356,-244.5001 1054.1356,-251.5001"/>
</g>
</g>
</svg>
